<mxfile host="app.diagrams.net" modified="2023-07-17T10:29:49.395Z" agent="Mozilla/5.0 (Macintosh; Intel Mac OS X 10_15_7) AppleWebKit/537.36 (KHTML, like Gecko) Chrome/114.0.0.0 Safari/537.36" version="21.6.2" etag="Dwij4toM2n1SMzucYkWF" type="github">
  <diagram name="第 1 页" id="PRnPsc_3hgMI3ZLT-1Th">
    <mxGraphModel>
      <root>
        <mxCell id="0" />
        <mxCell id="1" parent="0" />
      </root>
    </mxGraphModel>
  </diagram>
</mxfile>
